<?xml version="1.0" standalone="no"?>
<!DOCTYPE svg PUBLIC "-//W3C//DTD SVG 20010904//EN"
 "http://www.w3.org/TR/2001/REC-SVG-20010904/DTD/svg10.dtd">
<svg version="1.0" xmlns="http://www.w3.org/2000/svg"
 width="1280.000000pt" height="932.000000pt" viewBox="0 0 1280.000000 932.000000"
 preserveAspectRatio="xMidYMid meet">
<g transform="translate(0.000000,932.000000) scale(0.100000,-0.100000)"
fill="#000000" stroke="none">
<path d="M2870 9295 c-47 -13 -132 -46 -190 -73 -58 -27 -145 -64 -195 -82
-49 -18 -108 -42 -129 -53 -28 -13 -74 -22 -155 -28 -323 -25 -407 -81 -429
-282 -12 -112 -39 -166 -142 -287 -69 -81 -94 -121 -164 -265 -46 -93 -86
-180 -90 -193 -4 -12 -22 -28 -40 -36 -20 -8 -45 -33 -65 -65 -25 -39 -41 -53
-69 -60 -175 -47 -409 -36 -652 31 -111 30 -267 94 -313 128 -47 34 -108 40
-145 14 -27 -19 -54 -71 -76 -146 -20 -71 -20 -89 3 -181 36 -145 113 -270
209 -341 27 -19 81 -72 121 -117 120 -135 187 -181 316 -214 80 -21 295 -39
371 -31 60 6 62 6 113 -36 28 -23 51 -45 51 -49 0 -4 -19 -38 -42 -75 -68
-112 -154 -301 -197 -429 -78 -235 -107 -424 -98 -655 20 -569 301 -1043 809
-1369 123 -78 305 -147 495 -186 356 -74 749 -7 1111 187 52 27 96 47 99 44 3
-3 -10 -38 -30 -78 -20 -40 -43 -106 -52 -146 -19 -95 -19 -272 1 -387 45
-260 204 -588 403 -830 32 -38 93 -124 136 -190 42 -66 112 -156 154 -200 43
-44 100 -109 128 -145 92 -118 336 -493 391 -600 l53 -105 9 -220 c18 -435 74
-637 223 -801 26 -28 47 -57 47 -63 0 -5 -19 -15 -42 -21 -212 -55 -283 -83
-382 -154 -35 -25 -77 -61 -94 -81 -105 -119 -121 -288 -36 -373 l34 -34 312
7 c172 3 556 10 853 15 586 10 607 12 710 69 72 40 98 92 92 186 -5 93 -37
170 -158 385 -124 222 -153 305 -146 415 3 50 15 107 32 153 39 108 132 306
148 316 11 7 48 -12 133 -67 245 -156 383 -194 615 -168 131 15 219 35 494
111 121 33 238 60 260 60 22 0 123 -14 225 -30 390 -62 576 -32 940 152 139
70 183 88 193 79 19 -15 34 -89 56 -291 35 -301 89 -439 245 -623 32 -37 56
-70 53 -73 -2 -3 -38 -6 -78 -8 -185 -10 -425 -157 -490 -301 -25 -53 -24
-138 1 -193 24 -52 98 -126 171 -169 l54 -32 216 -7 c145 -5 253 -3 325 5 130
14 464 38 699 51 237 13 333 42 420 125 56 55 85 119 92 203 11 129 -33 260
-155 460 -62 101 -104 202 -137 324 -46 169 -65 410 -47 568 7 54 8 55 42 60
34 5 35 6 46 75 25 147 87 293 175 407 23 29 132 143 243 253 114 113 220 226
241 259 50 78 91 177 110 265 20 95 19 310 -1 426 -26 152 -28 175 -14 175 7
0 52 -13 101 -30 245 -82 427 -89 706 -27 167 36 175 40 324 163 76 63 142
140 174 203 68 135 59 312 -26 516 -27 63 -48 94 -113 162 -212 225 -375 296
-811 358 -167 24 -163 20 -115 95 175 272 47 663 -389 1195 -178 217 -232 273
-411 422 -205 171 -289 231 -370 263 -64 26 -157 30 -212 10 -21 -8 -40 -12
-42 -9 -3 2 -12 49 -20 104 -41 269 -176 484 -395 630 -156 103 -335 156 -531
157 -166 1 -292 -28 -440 -102 -122 -61 -265 -179 -347 -286 -14 -19 -31 -34
-37 -34 -7 0 -26 31 -44 68 -66 143 -169 277 -272 357 -189 145 -427 207 -705
183 -458 -41 -941 -353 -1000 -648 -7 -30 -16 -54 -21 -54 -5 1 -27 46 -49
101 -57 138 -88 188 -165 264 -148 146 -364 209 -665 195 -77 -4 -180 -13
-229 -20 -49 -8 -95 -12 -102 -9 -21 8 -53 106 -69 211 -8 54 -21 118 -30 142
-44 125 -178 266 -452 474 -107 81 -108 83 -165 191 -64 121 -98 161 -166 198
-105 57 -163 65 -477 71 l-290 5 -95 45 c-102 48 -277 97 -344 95 -23 -1 -79
-12 -126 -24z"/>
<path d="M785 4215 c-16 -9 -64 -52 -106 -98 l-76 -82 -95 -6 c-111 -7 -180
-34 -203 -80 -22 -41 -18 -121 10 -229 14 -52 25 -102 25 -111 0 -9 -18 -39
-40 -66 -163 -205 -123 -393 98 -460 31 -9 60 -19 64 -22 4 -3 -5 -44 -18 -91
-29 -96 -28 -168 1 -200 40 -44 139 -36 284 21 74 29 85 31 104 19 120 -79
211 -92 271 -39 19 16 54 60 76 96 36 56 44 63 56 51 8 -7 39 -72 70 -143 141
-325 260 -710 329 -1062 33 -172 66 -404 58 -416 -7 -12 -33 21 -33 43 0 8
-25 66 -55 127 -153 311 -493 628 -807 753 -297 117 -525 54 -609 -169 -18
-50 -38 -181 -27 -181 3 0 31 13 64 30 335 167 699 -21 960 -495 18 -33 54
-120 79 -193 54 -158 116 -286 197 -403 59 -87 200 -232 270 -279 44 -29 42
-23 58 -245 6 -88 13 -175 17 -192 l5 -33 204 0 c112 0 204 2 204 4 0 3 -14
59 -30 126 -36 141 -70 337 -99 571 -29 226 -29 226 7 283 31 49 70 154 93
256 9 38 13 151 14 370 1 296 2 320 24 405 73 282 198 455 379 526 47 19 77
23 170 24 61 0 112 1 112 3 0 1 -11 24 -24 50 -37 72 -100 138 -164 169 -76
37 -185 39 -284 5 -250 -86 -515 -399 -585 -691 -9 -39 -22 -71 -28 -71 -6 0
-26 39 -45 88 -55 147 -166 387 -281 610 l-109 212 27 11 c112 44 155 75 202
143 16 23 34 59 40 81 9 34 8 45 -10 79 -11 22 -18 49 -15 61 3 11 32 58 65
104 80 110 88 137 62 195 -15 34 -37 58 -88 95 l-69 50 -11 90 c-13 102 -38
159 -85 193 -28 20 -45 23 -113 22 -82 0 -117 -12 -207 -65 l-38 -23 -79 77
c-112 109 -191 140 -266 102z"/>
</g>
</svg>
